<svg width="388" height="99" viewBox="0 0 388 99" fill="none" xmlns="http://www.w3.org/2000/svg">
<path d="M144.444 15.0841C137.396 7.89208 125.685 12.6178 115.438 17.5504C113.417 16.5957 109.137 14.7022 102.979 12.6178C97.5691 10.7721 91.284 10.6448 86.065 12.7769C86.7652 14.5431 87.5766 16.2774 88.4518 17.9482C92.3024 16.4525 97.0281 16.6434 101.149 18.0277C104.125 19.0301 106.655 20.0166 108.675 20.844C103.997 22.6739 96.7257 22.1329 90.1702 20.9554C91.5386 23.2149 93.082 25.347 94.7527 27.3678C100.926 28.0201 107.339 27.8451 111.985 25.6016L114.674 24.2968C123.918 19.7462 135.438 14.0657 140.355 19.0938C146.115 24.9651 143.633 37.6307 139.766 46.6684C135.963 55.6107 135.932 61.2911 135.9 67.8466C135.9 68.8649 135.884 69.931 135.868 71.0448L135.836 73.1133C135.804 77.664 135.725 84.5219 133.497 86.3676C133.29 86.5585 132.718 87.0359 131.158 86.7654C128.055 86.2403 125.462 78.6505 123.759 73.6384C121.58 67.1942 119.829 62.1185 115.692 61.9753C108.325 61.7207 106.066 66.4782 104.666 71.6495C104.411 72.4928 104.188 73.4952 103.95 74.609C102.502 81.0054 100.735 87.2427 96.9167 86.8608C92.4933 86.4312 91.5863 79.4143 91.459 71.3949C89.5019 74.3067 87.8312 77.4094 86.4628 80.6872C87.4812 86.5585 90.027 91.9048 96.3598 92.5253C96.7258 92.5572 97.0599 92.589 97.3781 92.589C105.716 92.589 108.071 82.1829 109.487 75.8819C109.71 74.8636 109.916 73.9407 110.139 73.1929C111.476 68.2921 112.59 67.592 115.119 67.6875C116.074 68.7377 117.443 72.7792 118.365 75.5C120.895 82.9307 123.759 91.3161 130.219 92.398C133.64 92.9868 135.884 91.8411 137.157 90.791C141.389 87.2586 141.469 79.7961 141.548 73.2247L141.58 71.188C141.596 70.0424 141.612 68.9922 141.612 67.9262C141.644 61.7366 141.676 56.8359 145.033 48.9597C147.356 43.5338 154.15 25.0765 144.46 15.1636L144.444 15.0841Z" fill="black"/>
<path d="M126.64 46.9071V47.3685C110.41 49.3575 96.3441 58.427 87.6564 71.379C85.6993 74.2908 84.0286 77.3935 82.6602 80.6713C81.1805 84.14 80.0507 87.7996 79.3188 91.5707C79.0642 92.8118 78.8574 94.0847 78.7301 95.3735H77.839C77.6799 94.0847 77.4572 92.8118 77.1867 91.5707C72.5405 68.6263 52.9694 50.9645 28.7839 49.4848L0 47.7027V46.5889L28.768 44.8227C53.9241 43.2634 74.068 24.2332 77.664 0H78.8415C79.462 4.43931 80.6236 8.7195 82.2624 12.761C82.9625 14.5272 83.774 16.2616 84.6492 17.9323C85.2061 18.9506 85.763 19.953 86.3835 20.9395C87.7519 23.199 89.2953 25.3311 90.966 27.3519C99.7174 37.9171 112.335 45.1409 126.624 46.9071H126.64Z" fill="black"/>
<path d="M179.409 31.9662C181.656 31.9662 183.602 31.6195 185.264 30.926C186.926 30.2325 188.318 29.3025 189.442 28.1362C190.565 26.9698 191.404 25.6774 191.958 24.2116C192.512 22.7615 192.797 21.2957 192.797 19.7983V19.0576C192.797 17.4972 192.528 15.9998 191.958 14.5498C191.404 13.0997 190.565 11.8073 189.442 10.6567C188.318 9.50607 186.926 8.62342 185.264 7.9772C183.602 7.33098 181.656 6.99999 179.409 6.99999H170.436V31.9662H179.409ZM179.709 11.4605C180.975 11.4605 182.115 11.6496 183.112 12.0121C184.124 12.3904 184.979 12.9263 185.691 13.6198C186.403 14.3133 186.941 15.1645 187.321 16.1417C187.701 17.1189 187.875 18.2222 187.875 19.4358C187.875 20.6495 187.685 21.7212 187.321 22.6985C186.941 23.6757 186.403 24.5268 185.691 25.2518C184.979 25.9769 184.124 26.5285 183.112 26.9226C182.099 27.3166 180.975 27.5215 179.709 27.5215H175.262V11.4605H179.709Z" fill="black"/>
<path d="M196.484 29.4917C197.259 30.4058 198.24 31.1309 199.427 31.6668C200.614 32.2027 202.007 32.4706 203.589 32.4706C205.172 32.4706 206.454 32.2184 207.641 31.6983C208.827 31.1782 209.809 30.4531 210.568 29.5074C211.344 28.5617 211.85 27.4584 212.135 26.1975H207.751C207.546 26.8753 207.087 27.4427 206.359 27.8998C205.631 28.3568 204.713 28.5933 203.573 28.5933C202.434 28.5933 201.469 28.3411 200.725 27.8367C199.981 27.3324 199.427 26.6388 199.063 25.7404C198.826 25.1573 198.699 24.511 198.62 23.8333H212.436V22.1153C212.436 20.4918 212.103 18.9787 211.423 17.576C210.742 16.1732 209.729 15.0384 208.384 14.1557C207.039 13.2888 205.378 12.8475 203.384 12.8475C201.864 12.8475 200.535 13.1155 199.364 13.6356C198.193 14.1715 197.228 14.8807 196.468 15.7634C195.693 16.646 195.123 17.6705 194.727 18.8054C194.332 19.9402 194.126 21.1223 194.126 22.3359V22.9822C194.126 24.1485 194.316 25.2991 194.727 26.4339C195.123 27.553 195.708 28.5775 196.5 29.4917H196.484ZM200.741 17.4656C201.469 16.977 202.339 16.7406 203.384 16.7406C204.428 16.7406 205.283 16.9613 205.963 17.4184C206.644 17.8754 207.15 18.5059 207.514 19.3413C207.72 19.8141 207.846 20.35 207.925 20.9332H198.684C198.778 20.413 198.905 19.9402 199.095 19.5146C199.475 18.632 200.013 17.9542 200.741 17.4656Z" fill="black"/>
<path d="M219.763 21.0593C219.763 19.8929 220.111 18.9472 220.823 18.2222C221.535 17.4972 222.469 17.1346 223.624 17.1346C224.779 17.1346 225.618 17.4814 226.267 18.1749C226.931 18.8684 227.248 19.7826 227.248 20.9174V31.8244H231.964V21.3114C231.964 18.5217 231.394 16.4254 230.27 15.0068C229.147 13.6041 227.469 12.8948 225.285 12.8948H225.08C223.608 12.8948 222.389 13.21 221.393 13.8405C220.411 14.4709 219.668 15.4166 219.177 16.6618C219.003 17.0874 218.876 17.5444 218.766 18.0331V13.4622H215.031V31.8086H219.747V21.0277L219.763 21.0593Z" fill="black"/>
<path d="M246.364 32.0766V28.0574H243.484C242.582 28.0574 241.886 27.821 241.395 27.3323C240.905 26.8437 240.667 26.1502 240.667 25.2518V16.9455H246.364V13.4937H240.683V8.32395H236.252V13.4937H233.34V16.9455H236.252V24.9524C236.252 26.7334 236.521 28.1519 237.043 29.1922C237.582 30.2325 238.389 30.989 239.481 31.4146C240.572 31.8401 241.981 32.0766 243.706 32.0766H246.364Z" fill="black"/>
<path d="M260.069 31.8401H263.835V20.4918C263.835 18.7738 263.519 17.3868 262.87 16.315C262.221 15.2433 261.272 14.4552 260.021 13.9666C258.771 13.478 257.189 13.2258 255.29 13.2258C254.673 13.2258 254.024 13.2258 253.327 13.2415C252.631 13.2573 251.951 13.2731 251.302 13.3204C250.653 13.3676 250.068 13.4149 249.561 13.4622V17.4499C250.194 17.4026 250.906 17.3711 251.713 17.3238C252.52 17.2923 253.312 17.2607 254.103 17.245C254.894 17.2292 255.575 17.2135 256.144 17.2135C257.205 17.2135 257.996 17.4814 258.518 18.0015C259.04 18.5374 259.294 19.3097 259.294 20.35V20.5234H255.559C253.929 20.5234 252.505 20.744 251.286 21.1696C250.068 21.5952 249.118 22.2414 248.469 23.0925C247.805 23.9436 247.488 25.0469 247.488 26.4024C247.488 27.6476 247.757 28.7036 248.327 29.5862C248.881 30.4689 249.656 31.1466 250.653 31.6195C251.65 32.0923 252.805 32.3288 254.15 32.3288C255.496 32.3288 256.524 32.0923 257.426 31.6352C258.312 31.1782 259.024 30.5004 259.531 29.6178C259.768 29.2237 259.942 28.7666 260.085 28.278V31.8401H260.069ZM257.3 28.609C256.746 28.8455 256.144 28.9715 255.48 28.9715C254.388 28.9715 253.565 28.7194 252.979 28.1992C252.394 27.6791 252.109 27.0014 252.109 26.166C252.109 25.3306 252.394 24.6529 252.979 24.1328C253.549 23.6126 254.388 23.3604 255.48 23.3604H259.278V25.0469C259.23 26.0399 259.024 26.828 258.661 27.3954C258.297 27.9628 257.838 28.3726 257.284 28.609H257.3Z" fill="black"/>
<path d="M267.807 31.8401H272.523V7.17336H265.497V10.6882H267.807V31.8401Z" fill="black"/>
<path d="M193.002 61.787L184.314 37.1203H176.402L167.999 61.787H172.81L174.978 55.2618H185.77L188.002 61.787H193.002ZM176.354 51.1795L179.693 41.1394H180.944L184.378 51.1795H176.354Z" fill="black"/>
<path d="M212.214 59.6592C212.974 58.8081 213.543 57.7994 213.939 56.6488C214.335 55.4982 214.54 54.253 214.54 52.9291V52.2198C214.54 50.9116 214.335 49.6979 213.923 48.5474C213.512 47.4125 212.926 46.4195 212.182 45.5527C211.423 44.7015 210.521 44.0396 209.476 43.5667C208.416 43.0939 207.245 42.8574 205.931 42.8574C204.507 42.8574 203.225 43.1727 202.07 43.7874C200.915 44.4021 199.997 45.3478 199.301 46.6087C199.063 47.05 198.873 47.5229 198.699 48.043V43.4406H194.965V68.5487H199.681V59.3282C200.345 60.2897 201.152 61.0462 202.133 61.5348C203.273 62.1023 204.539 62.4017 205.916 62.4017C207.292 62.4017 208.416 62.1653 209.476 61.6767C210.537 61.1881 211.454 60.5261 212.214 59.6592ZM207.387 57.689C206.612 58.1776 205.742 58.4298 204.745 58.4298C203.858 58.4298 203.02 58.2249 202.228 57.8151C201.437 57.4053 200.788 56.8379 200.298 56.0971C199.807 55.3563 199.554 54.4579 199.554 53.4019V52.0464C199.554 50.9431 199.791 49.9974 200.282 49.2251C200.772 48.4528 201.405 47.8538 202.181 47.4283C202.956 47.0027 203.811 46.7978 204.745 46.7978C205.757 46.7978 206.644 47.0342 207.403 47.5229C208.163 48.0115 208.748 48.6892 209.16 49.5561C209.571 50.423 209.793 51.4317 209.793 52.5823C209.793 53.7329 209.587 54.7101 209.16 55.6085C208.732 56.5069 208.147 57.1847 207.387 57.689Z" fill="black"/>
<path d="M234.606 59.6592C235.366 58.8081 235.936 57.7994 236.331 56.6488C236.727 55.4982 236.933 54.253 236.933 52.9291V52.2198C236.933 50.9116 236.727 49.6979 236.316 48.5474C235.904 47.4125 235.319 46.4195 234.575 45.5527C233.815 44.7015 232.913 44.0396 231.869 43.5667C230.808 43.0939 229.637 42.8574 228.324 42.8574C226.9 42.8574 225.618 43.1727 224.463 43.7874C223.307 44.4021 222.389 45.3478 221.693 46.6087C221.456 47.05 221.266 47.5229 221.092 48.043V43.4406H217.357V68.5487H222.073V59.3282C222.738 60.2897 223.545 61.0462 224.526 61.5348C225.665 62.1023 226.931 62.4017 228.308 62.4017C229.685 62.4017 230.808 62.1653 231.869 61.6767C232.929 61.1881 233.847 60.5261 234.606 59.6592ZM229.78 57.689C229.004 58.1776 228.134 58.4298 227.137 58.4298C226.251 58.4298 225.412 58.2249 224.621 57.8151C223.83 57.4053 223.181 56.8379 222.69 56.0971C222.2 55.3563 221.946 54.4579 221.946 53.4019V52.0464C221.946 50.9431 222.184 49.9974 222.674 49.2251C223.165 48.4528 223.798 47.8538 224.573 47.4283C225.349 47.0027 226.203 46.7978 227.137 46.7978C228.15 46.7978 229.036 47.0342 229.796 47.5229C230.555 48.0115 231.141 48.6892 231.552 49.5561C231.964 50.423 232.185 51.4317 232.185 52.5823C232.185 53.7329 231.979 54.7101 231.552 55.6085C231.125 56.5069 230.539 57.1847 229.78 57.689Z" fill="black"/>
<path d="M255.986 45.6472C255.116 44.7646 254.055 44.0553 252.821 43.551C251.571 43.0466 250.178 42.7944 248.612 42.7944C247.045 42.7944 245.637 43.0466 244.386 43.551C243.136 44.0553 242.06 44.7488 241.19 45.6472C240.319 46.5456 239.655 47.5544 239.212 48.6892C238.753 49.824 238.531 51.0219 238.531 52.2828V52.9921C238.531 54.2373 238.753 55.4194 239.196 56.5384C239.639 57.6575 240.288 58.6663 241.142 59.5489C241.997 60.4315 243.057 61.125 244.291 61.6452C245.542 62.1653 246.966 62.4175 248.596 62.4175C250.226 62.4175 251.634 62.1653 252.869 61.6452C254.119 61.125 255.163 60.4315 256.018 59.5489C256.872 58.6663 257.521 57.6733 257.964 56.5384C258.407 55.4194 258.629 54.2373 258.629 52.9921V52.2828C258.629 51.0219 258.407 49.824 257.948 48.6892C257.489 47.5544 256.841 46.5456 255.97 45.6472H255.986ZM253.296 55.577C252.884 56.4439 252.267 57.1374 251.476 57.6418C250.685 58.1461 249.719 58.3983 248.596 58.3983C247.472 58.3983 246.475 58.1461 245.684 57.6418C244.893 57.1374 244.291 56.4439 243.864 55.577C243.453 54.7101 243.231 53.7171 243.231 52.6138C243.231 51.5105 243.453 50.5175 243.88 49.6349C244.307 48.7523 244.924 48.0587 245.731 47.5544C246.539 47.05 247.488 46.7978 248.596 46.7978C249.704 46.7978 250.653 47.05 251.444 47.5544C252.236 48.0587 252.853 48.7523 253.28 49.6349C253.707 50.5175 253.929 51.5105 253.929 52.6138C253.929 53.7171 253.723 54.7101 253.296 55.577Z" fill="black"/>
<path d="M261.367 38.6649C261.367 39.4372 261.588 40.0519 262.031 40.5247C262.474 40.9976 263.155 41.234 264.089 41.234C265.022 41.234 265.687 40.9976 266.13 40.5247C266.557 40.0519 266.779 39.4372 266.779 38.6649C266.779 37.8926 266.557 37.3094 266.13 36.8365C265.703 36.3637 265.022 36.1273 264.089 36.1273C263.155 36.1273 262.474 36.3637 262.031 36.8365C261.588 37.3094 261.367 37.9241 261.367 38.6649Z" fill="black"/>
<path d="M262.348 61.787H267.064V43.4406H259.768V46.9554H262.348V61.787Z" fill="black"/>
<path d="M281.417 42.8574H281.211C279.74 42.8574 278.521 43.1727 277.524 43.8031C276.543 44.4336 275.799 45.3793 275.308 46.6245C275.134 47.05 275.008 47.5071 274.897 47.9957V43.4249H271.162V61.7713H275.878V50.9904C275.878 49.824 276.226 48.8784 276.938 48.1533C277.651 47.4283 278.584 47.0658 279.74 47.0658C280.895 47.0658 281.733 47.4125 282.382 48.106C283.047 48.7995 283.363 49.7137 283.363 50.8485V61.7555H288.079V51.2426C288.079 48.4528 287.51 46.3565 286.386 44.938C285.262 43.5352 283.585 42.8259 281.401 42.8259L281.417 42.8574Z" fill="black"/>
<path d="M296.815 38.2708H292.368V43.4406H289.456V46.8924H292.368V54.8992C292.368 56.6803 292.637 58.0988 293.159 59.1391C293.681 60.1794 294.504 60.9359 295.596 61.3772C296.688 61.8186 298.097 62.0392 299.822 62.0392H302.464V58.02H299.584C298.682 58.02 297.986 57.7836 297.495 57.295C297.005 56.8064 296.767 56.1129 296.767 55.2145V46.9082H302.464V43.4564H296.783V38.2866L296.815 38.2708Z" fill="black"/>
<path d="M330.364 43.8189C329.414 43.1727 328.227 42.8574 326.803 42.8574H326.598C325.189 42.8574 324.018 43.1727 323.084 43.8189C322.151 44.4651 321.439 45.4108 320.948 46.656C320.9 46.7821 320.869 46.9082 320.821 47.0342C320.774 46.9082 320.742 46.7821 320.711 46.656C320.252 45.4108 319.54 44.4651 318.606 43.8189C317.672 43.1727 316.485 42.8574 315.061 42.8574H314.855C313.447 42.8574 312.276 43.1727 311.342 43.8189C310.408 44.4651 309.696 45.4108 309.222 46.656C309.063 47.05 308.953 47.4913 308.842 47.9484V43.4249H305.107V61.7713H309.823V51.0219C309.823 49.8083 310.155 48.8468 310.804 48.1376C311.453 47.4283 312.323 47.0658 313.415 47.0658C314.507 47.0658 315.314 47.4125 315.916 48.0903C316.517 48.768 316.818 49.7137 316.818 50.8801V61.7555H321.533V51.0062C321.533 49.7925 321.866 48.8311 322.515 48.1218C323.163 47.4125 324.034 47.05 325.126 47.05C326.218 47.05 327.025 47.3968 327.626 48.0745C328.228 48.768 328.528 49.6979 328.528 50.8643V61.7397H333.244V51.2583C333.244 49.4142 333.007 47.8696 332.516 46.6087C332.026 45.3635 331.313 44.4178 330.364 43.7716V43.8189Z" fill="black"/>
<path d="M350.019 44.0868C348.673 43.22 347.012 42.7786 345.018 42.7786C343.499 42.7786 342.169 43.0466 340.998 43.5667C339.827 44.1026 338.862 44.8119 338.102 45.6945C337.327 46.5772 336.757 47.6017 336.362 48.7365C335.966 49.8713 335.76 51.0534 335.76 52.2671V52.9133C335.76 54.0796 335.95 55.2302 336.362 56.3651C336.773 57.4999 337.343 58.5086 338.134 59.4228C338.909 60.337 339.891 61.062 341.077 61.5979C342.264 62.1338 343.657 62.4017 345.239 62.4017C346.822 62.4017 348.104 62.1496 349.291 61.6294C350.478 61.1093 351.459 60.3843 352.218 59.4386C352.994 58.4929 353.5 57.3896 353.785 56.1287H349.401C349.196 56.8064 348.737 57.3738 348.009 57.8309C347.281 58.288 346.363 58.5244 345.224 58.5244C344.084 58.5244 343.119 58.2722 342.375 57.7678C341.631 57.2635 341.077 56.57 340.713 55.6716C340.476 55.1041 340.35 54.4422 340.27 53.7644H354.086V52.0464C354.086 50.423 353.753 48.9099 353.073 47.5071C352.392 46.1043 351.38 44.9695 350.034 44.0868H350.019ZM342.375 47.4125C343.103 46.9239 343.973 46.6875 345.018 46.6875C346.062 46.6875 346.917 46.9082 347.597 47.3652C348.278 47.8223 348.784 48.4528 349.148 49.2881C349.354 49.761 349.481 50.2969 349.56 50.8801H340.318C340.413 50.3599 340.539 49.8871 340.729 49.4615C341.109 48.5789 341.647 47.9011 342.375 47.4125Z" fill="black"/>
<path d="M366.936 42.8574H366.73C365.258 42.8574 364.04 43.1727 363.043 43.8031C362.061 44.4336 361.318 45.3793 360.827 46.6245C360.653 47.05 360.526 47.5071 360.416 47.9957V43.4249H356.681V61.7713H361.397V50.9904C361.397 49.824 361.745 48.8784 362.457 48.1533C363.169 47.4283 364.103 47.0658 365.258 47.0658C366.413 47.0658 367.252 47.4125 367.901 48.106C368.566 48.7995 368.882 49.7137 368.882 50.8485V61.7555H373.598V51.2426C373.598 48.4528 373.028 46.3565 371.905 44.938C370.781 43.5352 369.104 42.8259 366.92 42.8259L366.936 42.8574Z" fill="black"/>
<path d="M387.999 46.8766V43.4249H382.318V38.2551H377.887V43.4249H374.975V46.8766H377.887V54.8835C377.887 56.6645 378.156 58.0831 378.678 59.1233C379.2 60.1636 380.023 60.9202 381.115 61.3615C382.207 61.8028 383.615 62.0235 385.34 62.0235H387.983V58.0043H385.103C384.201 58.0043 383.504 57.7678 383.014 57.2792C382.523 56.7906 382.286 56.0971 382.286 55.1987V46.8924H387.983L387.999 46.8766Z" fill="black"/>
<path d="M175.152 81.221H184.821V77.1703H175.152V71.1179H185.438V67.0671H170.436V91.7339H185.707V87.6675H175.152V81.221Z" fill="black"/>
<path d="M199.206 72.8043H199C197.528 72.8043 196.31 73.1196 195.313 73.75C194.332 74.3805 193.588 75.3262 193.097 76.5713C192.923 76.9969 192.797 77.454 192.686 77.9426V73.3717H188.951V91.7182H193.667V80.9373C193.667 79.7709 194.015 78.8252 194.727 78.1002C195.439 77.3752 196.373 77.0127 197.528 77.0127C198.684 77.0127 199.522 77.3594 200.171 78.0529C200.836 78.7464 201.152 79.6606 201.152 80.7954V91.7024H205.868V81.1895C205.868 78.3997 205.298 76.3034 204.175 74.8849C203.051 73.4821 201.374 72.7728 199.19 72.7728L199.206 72.8043Z" fill="black"/>
<path d="M223.877 77.1388C223.798 76.9654 223.735 76.792 223.655 76.6344C223.007 75.3892 222.136 74.4435 221.013 73.7973C219.889 73.1511 218.591 72.8201 217.088 72.8201C215.806 72.8201 214.619 73.0408 213.559 73.4978C212.499 73.9549 211.581 74.5854 210.806 75.4208C210.03 76.2561 209.445 77.2333 209.017 78.3366C208.59 79.4399 208.384 80.6536 208.384 81.9303V82.6711C208.384 83.9477 208.574 85.1614 208.986 86.2647C209.381 87.3837 209.951 88.361 210.679 89.2121C211.407 90.0632 212.309 90.7094 213.338 91.1665C214.366 91.6236 215.537 91.86 216.803 91.86C218.227 91.86 219.478 91.5448 220.57 90.9301C221.662 90.3154 222.516 89.417 223.149 88.2506V89.8425C223.149 91.0404 222.928 92.0176 222.5 92.8057C222.073 93.578 221.392 94.1454 220.443 94.508C219.509 94.8705 218.259 95.0438 216.724 95.0438C215.933 95.0438 215.062 95.0123 214.129 94.9178C213.195 94.8389 212.325 94.7601 211.533 94.6656V98.6217C212.309 98.732 213.148 98.8266 214.066 98.8897C214.983 98.9527 215.885 98.9842 216.756 98.9842C219.272 98.9842 221.313 98.669 222.912 98.0228C224.51 97.3766 225.681 96.3678 226.457 94.9808C227.232 93.5938 227.612 91.7812 227.612 89.5588V73.3718H223.845V77.123L223.877 77.1388ZM223.086 82.7026C223.086 83.7901 222.864 84.7043 222.421 85.4766C221.978 86.2489 221.393 86.8321 220.649 87.2261C219.905 87.6359 219.082 87.8408 218.164 87.8408C217.167 87.8408 216.297 87.6202 215.537 87.1631C214.778 86.706 214.192 86.0755 213.749 85.2402C213.322 84.4048 213.1 83.4276 213.1 82.2928C213.1 81.1579 213.322 80.1807 213.749 79.3296C214.176 78.4785 214.778 77.8323 215.537 77.3752C216.297 76.9181 217.167 76.6817 218.164 76.6817C219.019 76.6817 219.826 76.8708 220.57 77.2333C221.313 77.6116 221.915 78.1475 222.389 78.8725C222.848 79.5976 223.086 80.4802 223.086 81.5362V82.7026Z" fill="black"/>
<path d="M234.084 66.0899C233.151 66.0899 232.47 66.3263 232.027 66.7992C231.584 67.272 231.362 67.8867 231.362 68.6275C231.362 69.3683 231.584 70.0146 232.027 70.4874C232.47 70.9602 233.151 71.1967 234.084 71.1967C235.018 71.1967 235.683 70.9602 236.126 70.4874C236.553 70.0146 236.774 69.3998 236.774 68.6275C236.774 67.8552 236.553 67.272 236.126 66.7992C235.698 66.3263 235.018 66.0899 234.084 66.0899Z" fill="black"/>
<path d="M229.78 73.3875V76.9023H232.359V91.7339H237.075V73.3875H229.78Z" fill="black"/>
<path d="M251.413 72.8043H251.207C249.735 72.8043 248.517 73.1196 247.52 73.75C246.539 74.3805 245.795 75.3262 245.304 76.5713C245.13 76.9969 245.004 77.454 244.893 77.9426V73.3717H241.158V91.7182H245.874V80.9373C245.874 79.7709 246.222 78.8252 246.934 78.1002C247.646 77.3752 248.58 77.0127 249.735 77.0127C250.89 77.0127 251.729 77.3594 252.378 78.0529C253.043 78.7464 253.359 79.6606 253.359 80.7954V91.7024H258.075V81.1895C258.075 78.3997 257.505 76.3034 256.382 74.8849C255.258 73.4821 253.581 72.7728 251.397 72.7728L251.413 72.8043Z" fill="black"/>
<path d="M274.881 74.0337C273.536 73.1669 271.874 72.7255 269.88 72.7255C268.361 72.7255 267.032 72.9935 265.861 73.5136C264.69 74.0495 263.725 74.7588 262.965 75.6414C262.19 76.5241 261.62 77.5486 261.224 78.6834C260.829 79.8182 260.623 81.0003 260.623 82.214V82.8602C260.623 84.0265 260.813 85.1771 261.224 86.312C261.636 87.4468 262.205 88.4555 262.997 89.3697C263.772 90.2839 264.753 91.0089 265.94 91.5448C267.127 92.0807 268.52 92.3486 270.102 92.3486C271.685 92.3486 272.966 92.0964 274.153 91.5763C275.34 91.0562 276.321 90.3312 277.081 89.3855C277.856 88.4398 278.363 87.3365 278.648 86.0755H274.264C274.058 86.7533 273.599 87.3207 272.871 87.7778C272.143 88.2349 271.226 88.4713 270.086 88.4713C268.947 88.4713 267.981 88.2191 267.238 87.7147C266.494 87.2104 265.94 86.5169 265.576 85.6185C265.339 85.0353 265.212 84.3891 265.133 83.7113H278.948V81.9933C278.948 80.3699 278.616 78.8568 277.935 77.454C277.255 76.0512 276.242 74.9164 274.897 74.0337H274.881ZM267.238 77.3437C267.966 76.8551 268.836 76.6186 269.88 76.6186C270.925 76.6186 271.779 76.8393 272.46 77.2964C273.14 77.7535 273.647 78.3839 274.011 79.2193C274.217 79.6921 274.343 80.228 274.422 80.8112H265.18C265.275 80.2911 265.402 79.8182 265.592 79.3927C265.972 78.51 266.51 77.8323 267.238 77.3437Z" fill="black"/>
</svg>
