<svg width="194" height="124" viewBox="0 0 194 124" fill="none" xmlns="http://www.w3.org/2000/svg">
<path d="M186.952 19.5229C177.829 10.2145 162.672 16.3309 149.41 22.715C146.794 21.4794 141.255 19.0287 133.285 16.3309C126.283 13.942 118.148 13.7773 111.393 16.5368C112.3 18.8227 113.35 21.0675 114.483 23.2298C119.466 21.294 125.583 21.5411 130.916 23.3328C134.767 24.6302 138.042 25.907 140.657 26.9779C134.603 29.3462 125.191 28.646 116.707 27.1221C118.478 30.0464 120.475 32.806 122.638 35.4214C130.628 36.2657 138.927 36.0392 144.941 33.1355L148.421 31.4468C160.386 25.5569 175.296 18.2049 181.66 24.7126C189.115 32.3117 185.902 48.7044 180.898 60.4017C175.976 71.9754 175.935 79.3274 175.893 87.8121C175.893 89.1301 175.873 90.5099 175.852 91.9515L175.811 94.6287C175.77 100.519 175.667 109.394 172.784 111.783C172.516 112.03 171.775 112.648 169.756 112.298C165.741 111.619 162.384 101.795 160.18 95.3083C157.359 86.9678 155.094 80.3983 149.739 80.213C140.204 79.8835 137.28 86.041 135.468 92.734C135.138 93.8255 134.85 95.1229 134.541 96.5645C132.667 104.843 130.381 112.916 125.438 112.422C119.713 111.866 118.54 102.784 118.375 92.4045C115.842 96.1732 113.679 100.189 111.908 104.431C113.226 112.03 116.521 118.95 124.718 119.753C125.191 119.794 125.624 119.836 126.036 119.836C136.827 119.836 139.875 106.367 141.708 98.212C141.996 96.894 142.264 95.6996 142.552 94.7316C144.282 88.3887 145.723 87.4826 148.998 87.6062C150.233 88.9654 152.005 94.1962 153.199 97.7178C156.473 107.335 160.18 118.188 168.541 119.588C172.969 120.35 175.873 118.868 177.52 117.508C182.998 112.937 183.101 103.278 183.204 94.7728L183.245 92.1368C183.266 90.6541 183.287 89.2949 183.287 87.9151C183.328 79.9041 183.369 73.5612 187.714 63.3672C190.721 56.3447 199.515 32.4559 186.973 19.6259L186.952 19.5229Z" fill="black"/>
<path d="M163.906 60.7107V61.3079C142.901 63.8821 124.696 75.6206 113.451 92.384C110.918 96.1527 108.756 100.168 106.985 104.411C105.07 108.9 103.608 113.637 102.66 118.518C102.331 120.124 102.063 121.771 101.898 123.439H100.745C100.539 121.771 100.251 120.124 99.9007 118.518C93.8873 88.8212 68.5569 65.9621 37.2543 64.0469L0 61.7403V60.2988L37.2337 58.0129C69.7925 55.9947 95.8644 31.3644 100.519 0H102.043C102.846 5.74568 104.349 11.2854 106.47 16.5163C107.376 18.8022 108.427 21.0469 109.559 23.2093C110.28 24.5273 111.001 25.8247 111.804 27.1015C113.575 30.0258 115.573 32.7854 117.735 35.4008C129.062 49.0751 145.393 58.4247 163.886 60.7107H163.906Z" fill="black"/>
</svg>
